<svg width="53" height="63" viewBox="0 0 53 63" fill="none" xmlns="http://www.w3.org/2000/svg">
<g clip-path="url(#clip0_586_2358)">
<path d="M8.11279 18.7125C8.29337 18.6464 8.82608 18.4733 8.9561 18.3608C9.08792 18.2466 8.82608 17.6326 9.31725 17.5095C9.80843 17.3863 10.5669 17.2132 11.04 17.3346C11.5149 17.4577 11.8074 17.538 11.8779 17.6487C11.9483 17.7576 11.9266 17.8022 12.0873 17.9539C12.2481 18.1056 12.7338 18.7142 13.1853 18.8374C13.6367 18.9588 14.5577 20.4152 14.9188 20.5187C15.28 20.6223 15.4154 20.5973 15.5039 20.6169C15.5942 20.6365 15.7892 21.2523 15.9301 21.5165C16.0709 21.7788 16.3273 22.1947 16.3761 22.3036C16.423 22.4125 16.5169 22.5445 16.5224 22.7659C16.5278 22.9872 16.6506 23.4066 16.7228 23.6708C16.7968 23.9349 16.9377 24.2419 17.0081 24.374C17.0785 24.5061 17.1472 24.5704 17.2194 24.7238C17.2898 24.8773 17.4523 25.0737 17.4758 25.1611C17.5011 25.2504 17.5499 25.4039 17.5517 25.4699C17.5517 25.5377 17.604 25.8019 17.5625 25.9572C17.521 26.1142 17.4867 26.5569 17.4903 26.6908C17.4939 26.8228 17.8316 26.9264 17.967 26.946C18.1024 26.9656 18.1476 26.9638 18.218 27.1173C18.2884 27.2708 18.2902 27.3369 18.292 27.4047C18.292 27.4707 18.0573 27.8759 18.33 28.024C18.6026 28.1722 18.5358 28.1526 18.8302 28.2775C19.1245 28.4042 19.5073 28.4613 19.5579 28.638C19.6067 28.8147 19.8613 29.1182 19.9317 29.2502C20.0021 29.3823 19.9534 29.2056 20.0021 29.3823C20.0509 29.559 19.9714 29.9374 19.9714 29.9374C19.9714 29.9374 19.7656 29.7643 19.8613 30.007C19.957 30.2498 20.4084 30.3497 20.6107 30.3676C20.8129 30.3854 20.8346 30.3176 21.2463 30.6853C21.6598 31.0529 22.3876 31.4795 22.4562 31.5224C22.5248 31.5652 22.5519 31.7651 22.9636 32.1096C23.3753 32.454 23.4873 32.4737 23.7166 32.6236C23.9442 32.7735 24.2403 32.9663 24.3306 33.0074C24.4209 33.0502 24.5888 33.4446 24.8453 33.8819C25.1035 34.3192 24.8055 34.1265 25.4195 34.4888C26.0353 34.8511 26.1942 34.9368 26.1942 34.9368C26.1942 34.9368 26.9635 35.2081 27.0808 35.4258C27.1982 35.6454 27.1765 35.6454 27.2686 35.7542C27.3607 35.8631 27.4077 35.9274 27.6117 36.0113C27.8158 36.0952 27.7923 36.0737 27.953 36.1808C28.1119 36.2879 28.4334 36.6128 28.4587 36.7234C28.4839 36.8341 28.827 37.0697 29.0022 36.8876C29.1774 36.7056 29.488 36.5432 29.488 36.5432C29.488 36.5432 29.804 36.6021 29.8708 36.6217C29.9394 36.6431 29.8708 36.6877 30.0748 36.6842C30.2771 36.6806 30.6798 36.6038 30.9488 36.6199C31.2179 36.636 31.8265 36.7323 31.8517 36.8662C31.877 36.9983 32.3718 37.9407 32.3772 38.162C32.3826 38.3833 32.5434 38.535 32.5903 38.6225C32.6373 38.71 32.9822 39.0794 32.9822 39.0794C32.9822 39.0794 33.1645 39.1633 33.0327 39.3008C32.9009 39.4364 33.1122 39.8309 33.3578 39.7595C33.6034 39.6863 33.802 39.5488 34.0259 39.5435C34.2498 39.5381 34.304 39.8915 34.3726 40.0004C34.443 40.1093 34.5767 40.0843 34.4683 40.22C34.36 40.3556 33.5221 41.0071 34.3491 40.9053C34.3491 40.9053 34.6652 40.7483 34.7789 40.5966C34.8927 40.4431 35.2954 40.4181 35.4128 40.3984C35.5301 40.3788 35.745 40.1914 35.8281 40.1718C35.9112 40.1539 36.0971 40.1325 36.2488 40.161C36.4005 40.1914 36.4547 40.3056 36.5757 40.4199C36.6967 40.5341 36.7508 40.6983 36.7689 40.7643C36.787 40.8304 36.7888 40.8482 36.8574 40.9285C36.9031 40.9833 36.9495 41.0434 36.9964 41.1088C37.0669 41.207 36.9368 41.4265 37.0073 41.6068C37.0795 41.7888 36.9838 41.7746 37.0344 41.9049C37.0849 42.0369 37.1174 41.9691 37.047 42.2386C37.0013 42.4171 36.9507 42.5403 36.8953 42.6081C36.814 42.7098 36.8285 42.6081 36.814 42.7098C36.7996 42.8098 37.1228 42.9347 37.1897 42.9329C37.2565 42.9329 37.4425 42.9276 37.4425 42.9276C37.4425 42.9276 37.5093 42.8919 37.6971 43.0382C37.8849 43.1846 37.9372 43.2328 38.0889 43.2613C38.2406 43.2917 38.4266 43.3042 38.6686 43.5808C38.9106 43.8575 39.1562 43.5862 39.3584 43.5648C39.5607 43.5434 39.6925 43.4238 39.8406 43.3363C39.9904 43.2506 40.0717 43.131 40.2089 43.2774C40.348 43.4238 40.5015 43.563 40.5556 43.6647C40.5906 43.7325 40.6315 43.8051 40.6784 43.8825C40.7489 43.9967 40.5394 43.6522 40.8789 44.5268C41.2184 45.3996 41.1823 45.2336 41.1046 45.5192C41.027 45.803 41.1335 46.0011 41.2906 46.2296C41.4477 46.458 41.677 46.2367 41.8504 46.433C42.0238 46.6276 41.9551 46.5473 42.1466 46.8757C42.3398 47.2041 42.3921 47.3183 42.412 47.3844C42.4301 47.4504 42.3777 47.3683 42.4174 47.6342C42.4571 47.9002 42.3145 47.9198 42.4337 48.2C42.5547 48.4803 42.5366 48.4463 42.5619 48.7462C42.5854 49.0443 42.6431 49.3423 42.6793 49.4244C42.7154 49.5065 42.663 49.4744 42.784 49.6047C42.905 49.735 42.9032 49.685 43.1108 49.8635L43.3167 50.042C43.3167 50.042 43.286 50.142 43.3239 50.3579C43.3637 50.5739 43.3944 50.4722 43.333 50.7559C43.2716 51.0397 43.1759 51.2254 43.1759 51.2254C42.9899 51.1807 42.9682 50.9808 42.7659 50.9862C42.5637 50.9915 42.0978 51.2182 41.9479 51.2557C41.798 51.2932 41.7836 51.4431 41.7565 51.7251C41.7294 52.0089 41.8504 52.1392 41.9371 52.2195C42.0238 52.3016 42.0581 52.3659 42.0274 52.4997C41.9967 52.6336 42.0635 52.5997 41.9154 52.7853C41.7691 52.9709 41.7384 53.1048 41.6716 53.1726C41.6066 53.2405 41.5091 53.41 41.426 53.4778C41.343 53.5457 41.2762 53.5153 41.213 53.6992C41.1498 53.883 41.2653 53.7652 41.1498 53.883C41.0342 54.0026 40.9529 54.0704 40.9529 54.0704C40.9529 54.0704 40.9367 54.1043 40.906 54.2203C40.8753 54.3381 40.8608 54.4202 40.8969 54.5363C40.9331 54.6523 40.9313 54.5523 40.9367 54.8022C40.9421 55.0521 40.9096 55.0681 40.962 55.1681C41.0143 55.2663 40.9999 55.3502 41.1245 55.6125C41.2491 55.8767 41.2509 55.9427 41.4026 55.9552C41.5543 55.9677 41.8053 55.9463 41.9407 55.9427C42.0743 55.9392 42.1429 55.9195 42.3434 55.9427C42.5456 55.9641 42.8978 55.9213 42.9808 55.8196C43.0621 55.7178 43.0278 55.7018 43.1433 55.5822C43.2589 55.4626 43.2914 55.4126 43.2878 55.3287C43.2878 55.2466 43.2625 54.9968 43.2788 54.9468C43.295 54.8968 43.1921 54.8326 43.3384 54.6612C43.4865 54.4916 43.5009 54.4417 43.5822 54.3399C43.6634 54.2382 43.7266 54.0704 43.8584 53.9508C43.9903 53.8312 43.9216 53.767 44.1203 53.6278C44.3189 53.4903 44.2846 53.4743 44.4832 53.3529C44.6819 53.2315 44.7993 53.2458 44.9148 53.0941C45.0286 52.9424 45.0792 52.9567 45.0755 52.7746C45.0701 52.5926 45.0665 52.4087 45.0647 52.3427C45.0629 52.2766 45.1749 52.0071 45.0485 51.6609C44.9221 51.3146 44.8462 50.9683 44.8462 50.9683C44.8462 50.9683 44.8227 50.6685 45.1713 50.4614C45.5198 50.2544 46.0778 49.7082 46.28 49.7029C46.4823 49.6975 46.7658 49.6422 46.9373 49.7207C47.1071 49.7993 47.0276 49.951 47.3743 49.71C47.7228 49.4691 47.7878 49.4012 47.7842 49.3013C47.7824 49.2013 47.7662 49.2513 47.573 48.8908C47.3797 48.5302 47.349 48.6641 47.2714 48.2161C47.1937 47.7681 47.1594 47.7859 47.1558 47.6039C47.1504 47.4218 47.2678 47.3844 47.1414 46.9881C47.0132 46.5919 46.4859 46.3206 46.3143 46.2099C46.1428 46.0975 45.9062 46.0189 45.648 45.7762C45.3898 45.5335 45.388 45.4496 45.2038 45.471C45.0196 45.4924 44.7668 45.5317 44.7162 45.4995C44.6638 45.4674 44.3587 45.3407 44.355 45.1747C44.3514 45.0087 44.2286 44.7945 44.2557 44.5447C44.2828 44.2948 44.3279 44.061 44.3912 43.9092C44.4544 43.7575 44.6963 43.3202 44.6927 43.1364C44.6891 42.9543 44.8047 42.169 44.8336 42.0191C44.8643 41.8692 44.8444 41.7192 45.1532 41.2962C45.462 40.8732 45.3753 40.759 45.7076 40.5841C46.0398 40.4091 46.2674 40.1057 46.522 40.1825C46.7766 40.2592 46.9283 40.3235 47.0023 40.5377C47.0746 40.7518 46.9752 40.8214 47.1973 40.9321C47.4195 41.0428 46.773 40.7768 47.5892 41.107C48.4054 41.4372 48.4054 41.4194 48.5228 41.4515C48.642 41.4818 48.7594 41.4801 49.0447 41.4729C49.33 41.4658 49.2126 41.4693 49.5322 41.4444C49.8519 41.4194 49.8501 41.3533 49.9367 41.4515C50.0234 41.5497 50.0938 41.6978 50.13 41.796C50.1661 41.8941 50.1137 41.8299 50.2184 42.0102C50.3232 42.1904 50.3358 41.9905 50.6139 42.3832C50.892 42.7759 50.5652 42.451 50.6284 42.999C50.6916 43.5451 50.6916 43.4952 50.9805 43.6397C51.2694 43.7825 51.2947 44.0806 51.6161 44.1573C51.9376 44.2323 51.9538 44.2162 52.1055 44.2287C52.2572 44.2412 52.4269 44.2716 52.4757 44.2359C52.5262 44.2002 52.5768 44.2501 52.5696 43.9342C52.5624 43.6183 52.5425 43.5201 52.5569 43.4023C52.5714 43.2863 52.519 43.2542 52.631 43.0186C52.7429 42.783 52.7917 42.7152 52.8856 42.4135C52.9795 42.1119 53.0391 41.8281 52.9524 41.7139C52.8657 41.5996 52.8134 41.5336 52.3132 41.0142C51.813 40.493 51.2622 40.0361 51.0888 39.7934C50.9155 39.5506 51.2712 39.7095 50.6735 39.274C50.074 38.8385 49.971 38.7242 49.8519 38.6939C49.7327 38.6636 49.2433 38.5583 48.8334 38.3351C48.4253 38.112 48.2212 38.0496 47.898 37.9246C47.5748 37.7997 47.3057 37.739 47.0998 37.6283C46.8958 37.5159 46.7947 37.5355 46.5888 37.341C46.3811 37.1464 46.2457 37.0661 46.1951 37.034C46.1446 37.0019 46.0055 36.8716 45.8195 36.843C45.6335 36.8144 45.3284 36.7216 45.0232 36.6449C44.718 36.5681 44.5826 36.4896 44.3948 36.4093C44.207 36.3308 43.546 36.1469 43.4269 36.0666C43.3077 35.9863 42.6612 35.7346 42.5077 35.6561C42.3542 35.5758 41.7583 35.308 41.6572 35.3098C41.5561 35.3116 41.5922 35.4116 41.4387 35.3152C41.2852 35.2188 41.166 35.1884 41.0089 34.96C40.8518 34.7315 40.6622 34.5191 40.6622 34.5191C40.6622 34.5191 40.5412 34.3728 40.6893 34.2032C40.8355 34.0336 41.1317 33.7106 41.3303 33.6231C41.5308 33.5357 41.7276 33.3804 41.8396 33.1609C41.9533 32.9431 42.0508 32.8074 41.845 32.6789C41.6409 32.5504 41.5506 32.3023 41.1299 32.297C40.7091 32.2898 40.5845 32.0435 40.4076 32.3148C40.2288 32.5843 40.2523 32.9003 39.9507 32.9235C39.6491 32.9467 39.8279 32.6932 39.3711 32.6379C38.916 32.5826 38.2244 32.4826 38.0745 32.5522C37.9246 32.6218 37.6086 32.7628 37.558 32.7807C37.5075 32.7985 36.805 32.2327 36.5829 32.0882C36.3608 31.9436 35.7793 31.5581 35.541 31.4474C35.3026 31.3367 35.0949 31.1243 35.0949 31.1243C35.0949 31.1243 34.5676 30.8869 34.2751 30.6281C33.9826 30.3693 33.6936 30.2087 33.6413 30.1784C33.5889 30.1462 32.9334 29.4305 32.7582 29.1842C32.5849 28.9397 32.5289 28.7237 32.4603 28.6416C32.3917 28.5595 32.3086 28.6291 32.0775 28.0847C31.8463 27.5421 31.6712 27.2637 31.6513 27.1637C31.6314 27.0638 31.7 27.0959 31.6477 26.9978C31.5953 26.8996 31.5285 26.9513 31.4689 26.5872C31.4093 26.2231 31.3551 26.025 31.3172 25.909C31.2811 25.793 31.0211 24.8184 30.9181 24.7203C30.8152 24.6239 30.7105 24.4918 30.7069 24.3597C30.7032 24.2277 30.5136 24.0153 30.4902 23.7333C30.4667 23.4512 30.4974 23.3495 30.2735 23.1228C30.0496 22.8962 29.7751 22.6695 29.7751 22.6695C29.7751 22.6695 29.2333 22.4999 29.1322 22.4856C29.0311 22.4714 28.316 22.1055 28.1444 21.9591C27.9729 21.8145 27.9025 21.7164 27.9025 21.7164C27.9025 21.7164 27.4546 21.2773 27.0429 20.9542C26.6312 20.6312 26.2213 20.392 26.0497 20.2456C25.8782 20.1011 25.8276 20.1511 25.5856 19.8405C25.3419 19.5299 25.0728 19.2872 25.0367 18.9052C25.0006 18.5233 25.0981 17.1686 25.127 16.9687C25.1559 16.7688 25.1414 16.5189 25.1071 16.3529C25.0746 16.1869 24.9933 15.6568 24.8922 15.6586C24.7911 15.6604 24.5906 15.7318 24.5419 15.7835C24.4931 15.8335 24.3631 16.037 24.3469 16.0869C24.3324 16.1369 24.1843 16.3565 24.1843 16.3565C24.1843 16.3565 24.1374 16.4743 24.0001 16.4278C23.8647 16.3814 23.6607 16.3368 23.6245 16.1708C23.5866 16.0066 23.4331 15.8924 23.5288 15.6907C23.6245 15.489 23.5559 15.4069 23.7708 15.2695C23.9857 15.1303 23.9189 15.116 24.1374 15.1106C24.3559 15.1053 24.6773 15.132 24.9265 14.9928C25.1757 14.8536 25.508 14.7126 25.6416 14.6109C25.7734 14.5073 25.8908 14.5056 25.936 14.2557C25.9811 14.0058 25.9901 13.7059 25.9558 13.656C25.9215 13.6078 25.5098 13.3008 25.3888 13.1205C25.266 12.9402 25.1884 12.7421 25.1884 12.7421C25.1884 12.7421 24.9049 12.6154 24.9012 12.4994C24.8994 12.3834 24.9355 11.8336 25.0168 11.7158C25.0981 11.598 25.2985 11.5106 25.378 11.3749C25.378 11.3749 25.6416 10.4664 25.694 10.4664C25.7463 10.4664 26.1201 10.4307 26.2267 10.4664C26.3332 10.5021 26.5283 10.7645 26.5283 10.7645C26.5283 10.7645 27.4889 10.6806 27.684 10.4504C27.879 10.2201 28.3232 10.0274 28.4839 10.0095C28.6428 9.99166 29.627 9.02963 30.1019 9.06175C30.5768 9.09566 31.05 9.06175 31.05 9.06175C31.05 9.06175 31.3335 8.76725 31.3335 8.48703C31.3335 8.20681 31.1908 7.9248 31.1908 7.69099V6.94135H30.9055C30.9055 6.94135 30.7628 6.56653 30.7159 6.42552C30.6689 6.28452 30.5263 6.09711 30.5263 6.09711C30.5263 6.09711 30.3367 5.7687 30.5263 5.58129C30.7159 5.39388 30.9994 5.34747 31.1908 5.06546C31.3804 4.78346 31.6639 4.59605 31.6639 4.45683C31.6639 4.31761 31.617 4.08201 31.3804 4.08201C31.1439 4.08201 29.6739 3.84819 28.7259 3.7536C27.7779 3.66078 27.0664 3.05036 26.6402 3.05036C26.2141 3.05036 26.3549 3.37878 25.6922 2.86295C25.0294 2.34713 24.7911 2.30073 24.7441 2.01872C24.6972 1.73671 24.6015 1.83131 24.6015 1.45649C24.6015 1.08167 24.5545 1.03526 24.7441 0.565848C24.9337 0.0964311 25.0294 -0.0909786 24.5545 0.0500249C24.0814 0.191028 24.3649 0.0964312 23.6534 0.519442C22.942 0.940667 22.8011 1.08167 22.4688 1.08167H21.6147C21.3781 1.08167 21.0928 1.03526 20.8093 1.17448C20.524 1.31549 19.8613 1.4083 19.529 1.87772L19.1967 2.34713C19.1967 2.34713 18.6279 2.39354 18.3914 2.20613C18.1548 2.01872 18.3444 1.73671 17.9652 1.7849C17.586 1.83309 17.2537 2.01872 17.2537 2.01872C17.2537 2.01872 17.1111 1.92412 16.8745 2.30073C16.6379 2.67555 16.4483 3.00396 16.4483 3.00396C16.4483 3.00396 16.7336 3.28418 16.8275 3.42518C16.9233 3.56619 17.0172 3.61259 16.8275 3.84641C16.6379 4.08022 16.4014 4.22123 16.163 4.08023C15.9265 3.93922 15.7368 3.70541 15.7368 3.70541C15.7368 3.70541 15.4533 3.70541 15.3576 3.84641C15.2619 3.98741 15.2619 3.94101 15.215 4.22123C15.168 4.50324 15.2619 5.5795 15.2619 5.5795C15.2619 5.5795 15.3576 6.00073 14.9784 5.95432C14.7256 5.92338 14.5041 5.86091 14.3139 5.76691C14.0286 5.62591 13.7451 5.48491 13.6024 5.48491C13.4597 5.48491 13.1762 5.71872 12.9397 5.48491C12.7031 5.25109 12.1343 4.82808 12.1343 4.68886C12.1343 4.54964 11.802 4.03382 11.6124 4.22123C11.4228 4.40864 11.2802 5.34569 11.2802 5.5795C11.2802 5.81332 11.3759 5.76691 11.1844 6.00073C10.9948 6.23454 10.8052 6.42195 10.8052 6.42195L10.6156 6.98418C10.6156 6.98418 10.473 7.077 10.473 7.359C10.473 7.64101 11.0905 8.48346 10.7095 8.52987C10.3303 8.57627 9.47616 8.24786 9.47616 7.92123C9.47616 7.5946 9.85538 6.93778 9.42921 6.89137C9.00305 6.84496 9.05 7.26619 8.52812 6.75037C8.00625 6.23454 7.53313 6.00073 7.53313 5.62591C7.53313 5.25109 7.8654 4.96908 7.43742 4.92268C7.01126 4.87627 6.72594 4.87627 6.58328 5.25109C6.44063 5.62591 6.39368 5.53131 6.34673 5.95432C6.29978 6.37555 6.34673 6.47015 6.25283 6.61115C6.15712 6.75215 6.44243 6.47015 6.15712 6.75215C5.8718 7.03416 5.82485 7.03416 5.68219 7.31438C5.53954 7.59639 4.06962 7.64279 3.92877 7.64279C3.78792 7.64279 3.61998 8.11043 3.17034 8.13541C2.71889 8.15862 2.34148 8.13541 1.74737 8.13541C1.15327 8.13541 0.988941 7.8302 0.703626 8.11221C0.418311 8.39422 0.32441 8.46383 0.181752 8.60483C0.0390944 8.74583 -0.127038 8.67622 0.086045 8.93324C0.299128 9.19026 0.086045 9.05104 0.418311 9.33127C0.750576 9.61327 0.797527 9.58829 0.916709 9.82389C1.03409 10.0577 1.17674 10.1755 1.3194 10.3165C1.46206 10.4575 1.9117 10.9483 1.9117 10.9483C1.9117 10.9483 2.22049 11.0429 2.05436 11.4874C1.88823 11.9318 1.88823 12.0496 1.88823 12.0496C1.88823 12.0496 2.07783 11.9568 1.72209 12.1906C1.36635 12.4244 1.2255 12.519 0.940185 12.7296C0.656675 12.9402 0.443592 12.8706 0.32441 13.1277C0.207033 13.3847 0.0409002 13.9719 0.111326 14.1111C0.181752 14.2521 0.420117 14.7679 0.490542 14.8143C0.560968 14.8607 0.537493 14.9321 0.799333 14.9321C1.06117 14.9321 1.03589 14.7911 1.24898 14.8857C1.46206 14.9803 1.55777 15.4016 1.48553 15.5658C1.48553 15.5658 0.158277 16.5492 0.181752 16.6206C0.205227 16.6902 0.37136 16.9026 0.750576 17.1132C1.12979 17.3238 1.2255 17.5577 1.2255 17.5577C1.2255 17.5577 1.20202 17.6755 1.24898 17.8397C1.29593 18.0039 1.27245 17.9807 1.46206 18.1217C1.46206 18.1217 1.12979 18.4501 1.55777 18.5661C1.98393 18.6839 2.15007 18.8481 2.36315 18.8713C2.57623 18.8945 3.47732 18.9891 3.73916 18.9891C4.001 18.9891 4.02267 18.9427 4.0949 18.9427C4.16713 18.9427 4.71068 19.0605 4.54455 19.4103C4.37841 19.762 4.26104 20.019 4.14185 20.1832C4.02448 20.3474 3.90529 20.699 3.90529 20.699C3.90529 20.699 3.76264 20.8632 3.85834 20.9096C3.95405 20.956 4.21409 21.1434 4.56983 21.1434C4.92557 21.1434 5.42397 21.3772 5.77971 21.097C6.13545 20.8168 6.1824 20.8168 6.41896 20.5348C6.65552 20.2528 6.58509 20.301 6.84512 20.0422C7.10516 19.7852 7.75344 18.8481 8.10196 18.7232L8.11279 18.7125Z" fill="#A78383"/>
<path d="M38.5586 54.4916C38.5586 54.4916 38.0042 54.7629 37.504 54.8307C37.002 54.8985 36.8287 54.811 36.3303 54.911C35.8319 55.0127 35.5195 54.8807 35.4237 54.9788C35.3298 55.0788 35.2052 55.2198 34.8062 55.3144C34.4089 55.4072 33.8563 55.2466 33.6992 55.3893C33.5403 55.5339 32.8523 55.3412 32.6266 55.4768C32.399 55.6124 31.9855 55.4572 31.8898 55.5553C31.7959 55.6535 31.6117 55.9105 31.2199 55.616C30.828 55.3197 30.7449 55.0931 30.3043 55.0556C29.8637 55.0181 29.4863 54.9449 29.2515 54.961C29.0168 54.977 28.5058 54.911 28.1771 55.0342C27.8484 55.1555 27.3338 55.0342 26.8986 55.077C26.4634 55.118 26.0336 54.7468 25.9054 55.8231C25.779 56.8993 25.8856 56.9261 25.7989 57.1653C25.7122 57.4044 26.3713 58.6253 26.3713 58.6253C26.3713 58.6253 26.4002 58.5557 26.7397 58.6003C27.0792 58.6449 28.206 58.8341 28.206 58.8341C28.206 58.8341 29.1685 59.5677 29.6922 59.8318C30.2158 60.096 30.6023 60.303 30.7034 60.2959C30.8027 60.2888 31.1205 60.4673 31.1205 60.4673C31.1205 60.4673 31.3788 60.7832 31.5196 60.8724C31.6605 60.9634 32.5905 61.233 32.6952 61.2919C32.7999 61.3508 33.757 61.5185 33.757 61.5185C33.757 61.5185 33.6378 61.2615 33.8906 61.5096C34.1452 61.7595 34.9777 62.1022 34.9777 62.1022L35.1944 62.3199C35.1944 62.3199 35.115 62.6251 35.4599 62.7358C35.8048 62.8447 35.7849 63.0464 36.6246 62.9893C37.4643 62.9321 38.2697 62.8768 38.2697 62.8768C38.8331 62.2378 39.0841 61.9879 39.0841 61.9879C39.0841 61.9879 39.2954 62.1057 39.0407 61.3579C38.7861 60.6083 38.2841 59.7087 38.2841 59.7087L38.573 58.536C38.573 58.536 38.6218 58.5878 38.9107 58.2005C39.1979 57.8132 39.3911 57.6668 39.5301 57.2581C39.671 56.8476 39.6276 57.2188 39.671 56.8476C39.7125 56.4781 39.55 56.5566 39.6222 56.1515C39.6944 55.7463 39.3893 55.7338 39.5825 55.3536C39.7757 54.9735 39.7956 54.7718 39.7793 54.5398C39.7631 54.3077 39.7595 54.256 39.7504 54.1328C39.7414 54.0079 40.052 53.6206 39.4958 53.8579C38.9396 54.0971 39.3387 54.206 38.5622 54.4898L38.5586 54.4916Z" fill="#A78383"/>
<path d="M9.88378 50.0634C9.88378 50.0634 9.84947 49.0318 9.88378 48.9658C9.91809 48.8997 9.9849 48.7659 10.1872 48.7659C10.3894 48.7659 10.4905 49.0318 10.691 49.0657C10.8932 49.0996 11.0955 49.0996 11.2634 49.1657C11.4313 49.2317 11.6336 49.5976 11.8358 49.6636C12.0381 49.7297 12.3072 50.1295 12.5762 49.6636C12.8453 49.1978 12.8453 49.0978 12.8453 48.7659C12.8453 48.4339 12.6773 48.134 12.8453 47.8359C13.0132 47.5361 13.1143 47.238 13.1487 47.1381C13.183 47.0381 13.1487 46.6722 13.1487 46.6722C13.1487 46.6722 12.9771 46.4402 13.1631 46.0743C13.3491 45.7084 13.4845 44.8445 13.4845 44.8445C13.4845 44.8445 13.6525 44.7785 13.4845 44.4786C13.3166 44.1788 13.2155 43.9128 13.1812 43.7808C13.1468 43.6469 13.1468 43.5148 13.1468 43.2828C13.1468 43.0508 13.1125 42.551 13.248 42.385C13.3834 42.219 13.517 41.9852 13.7536 41.6193C13.9883 41.2534 13.9215 41.1213 13.7536 40.7876C13.5857 40.4556 13.5188 40.3217 13.3834 39.9237C13.248 39.5257 13.0132 39.1259 12.8796 38.826C12.746 38.5261 12.746 38.594 12.5437 38.0942C12.3415 37.5962 12.2746 37.3624 12.2746 37.3624C12.2746 37.3624 12.0074 37.3963 11.89 37.3624C11.7708 37.3285 11.5361 37.1964 11.3338 37.3624C11.1316 37.5284 11.0323 37.5945 10.83 37.6944C10.6278 37.7944 10.3587 37.9603 10.3587 37.9603L9.55151 38.1924C9.55151 38.1924 9.4847 38.2923 9.31676 38.4583C9.14882 38.6243 8.87976 39.0241 8.87976 39.0241L8.44276 39.224C8.44276 39.224 8.37594 39.2579 8.27482 39.224C8.1737 39.1901 7.36651 39.058 7.36651 38.9581C7.36651 38.8581 7.19857 38.7582 7.13175 38.5583C7.06494 38.3584 6.96381 38.1585 6.86269 38.2923C6.76157 38.4244 6.66044 38.6582 6.66044 38.7582C6.66044 38.8581 6.76157 39.1241 6.66044 39.224C6.55932 39.324 6.89519 39.39 6.66044 39.6899C6.42569 39.9897 6.35707 40.1557 6.42569 40.3556C6.4925 40.5555 6.52681 40.7215 6.69475 40.7536C6.86269 40.7876 7.13175 41.0196 7.23288 41.1195C7.334 41.2195 7.66988 41.7514 7.66988 41.7514C7.66988 41.7514 7.73669 42.4493 7.73669 42.5831V43.4149C7.73669 43.5148 7.73669 43.3328 7.70419 43.6737C7.66988 44.0146 7.56876 44.2466 7.66988 44.4465C7.771 44.6464 7.80531 44.7464 7.93894 45.0783C8.07438 45.4103 8.17369 45.0783 8.07438 45.4103C7.97325 45.7423 7.83962 45.9083 7.83962 45.9083C7.83962 45.9083 7.80531 45.9422 7.7385 46.3081C7.67168 46.674 7.67169 46.84 7.63737 46.9399C7.60307 47.0399 7.50375 47.1399 7.46944 47.2719C7.43513 47.404 7.43513 47.3719 7.36831 47.6378C7.3015 47.9038 7.23468 48.4696 7.23468 48.4696C7.23468 48.4696 7.40262 48.4696 7.23468 48.6356C7.06674 48.8016 7.26899 48.9354 6.96562 48.9675C6.66225 49.0015 6.52862 48.5695 6.66225 49.0015C6.79588 49.4334 7.03243 49.7332 7.06674 49.8332C7.10105 49.9332 7.13356 49.8992 7.23468 50.0652C7.33581 50.2312 8.31094 50.3651 8.6125 50.465C8.91588 50.565 9.90545 50.8309 9.891 50.0652L9.88378 50.0634Z" fill="#A78383"/>
</g>
<defs>
<clipPath id="clip0_586_2358">
<rect width="53" height="63" fill="white"/>
</clipPath>
</defs>
</svg>
