<svg width="53" height="64" viewBox="0 0 53 64" fill="none" xmlns="http://www.w3.org/2000/svg">
<g clip-path="url(#clip0_586_2352)">
<path d="M8.11279 19.2954C8.29337 19.23 8.82608 19.0584 8.9561 18.9469C9.08792 18.8337 8.82608 18.2252 9.31725 18.1031C9.80843 17.981 10.5669 17.8094 11.04 17.9297C11.5149 18.0518 11.8074 18.1314 11.8779 18.2411C11.9483 18.349 11.9266 18.3932 12.0873 18.5436C12.2481 18.694 12.7338 19.2972 13.1853 19.4193C13.6367 19.5396 14.5577 20.9831 14.9188 21.0857C15.28 21.1883 15.4154 21.1635 15.5039 21.183C15.5942 21.2025 15.7892 21.8128 15.9301 22.0746C16.0709 22.3346 16.3273 22.7468 16.3761 22.8547C16.423 22.9626 16.5169 23.0936 16.5224 23.3129C16.5278 23.5323 16.6506 23.948 16.7228 24.2098C16.7968 24.4716 16.9377 24.7759 17.0081 24.9068C17.0785 25.0377 17.1472 25.1014 17.2194 25.2535C17.2898 25.4057 17.4523 25.6003 17.4758 25.687C17.5011 25.7754 17.5499 25.9275 17.5517 25.993C17.5517 26.0602 17.604 26.322 17.5625 26.4759C17.521 26.6316 17.4867 27.0703 17.4903 27.203C17.4939 27.3339 17.8316 27.4365 17.967 27.456C18.1024 27.4755 18.1476 27.4737 18.218 27.6258C18.2884 27.778 18.2902 27.8434 18.292 27.9106C18.292 27.9761 18.0573 28.3777 18.33 28.5245C18.6026 28.6713 18.5358 28.6519 18.8302 28.7757C19.1245 28.9013 19.5073 28.9579 19.5579 29.133C19.6067 29.3082 19.8613 29.6089 19.9317 29.7398C20.0021 29.8707 19.9534 29.6956 20.0021 29.8707C20.0509 30.0459 19.9714 30.4209 19.9714 30.4209C19.9714 30.4209 19.7656 30.2493 19.8613 30.4899C19.957 30.7305 20.4084 30.8295 20.6107 30.8472C20.8129 30.8649 20.8346 30.7977 21.2463 31.1621C21.6598 31.5265 22.3876 31.9493 22.4562 31.9918C22.5248 32.0343 22.5519 32.2324 22.9636 32.5738C23.3753 32.9152 23.4873 32.9347 23.7166 33.0833C23.9442 33.2319 24.2403 33.423 24.3306 33.4636C24.4209 33.5061 24.5888 33.8971 24.8453 34.3305C25.1035 34.7639 24.8055 34.5728 25.4195 34.9319C26.0353 35.2911 26.1942 35.376 26.1942 35.376C26.1942 35.376 26.9635 35.6449 27.0808 35.8607C27.1982 36.0783 27.1765 36.0783 27.2686 36.1862C27.3607 36.2941 27.4077 36.3578 27.6117 36.4409C27.8158 36.5241 27.7923 36.5028 27.953 36.609C28.1119 36.7151 28.4334 37.0371 28.4587 37.1468C28.4839 37.2565 28.827 37.49 29.0022 37.3095C29.1774 37.1291 29.488 36.9681 29.488 36.9681C29.488 36.9681 29.804 37.0265 29.8708 37.0459C29.9394 37.0672 29.8708 37.1114 30.0748 37.1079C30.2771 37.1043 30.6798 37.0282 30.9488 37.0442C31.2179 37.0601 31.8265 37.1556 31.8517 37.2883C31.877 37.4192 32.3718 38.3533 32.3772 38.5726C32.3826 38.792 32.5434 38.9423 32.5903 39.029C32.6373 39.1157 32.9822 39.4819 32.9822 39.4819C32.9822 39.4819 33.1645 39.565 33.0327 39.7013C32.9009 39.8357 33.1122 40.2267 33.3578 40.1559C33.6034 40.0834 33.802 39.9472 34.0259 39.9418C34.2498 39.9365 34.304 40.2868 34.3726 40.3947C34.443 40.5026 34.5767 40.4779 34.4683 40.6123C34.36 40.7468 33.5221 41.3925 34.3491 41.2916C34.3491 41.2916 34.6652 41.1359 34.7789 40.9856C34.8927 40.8334 35.2954 40.8087 35.4128 40.7892C35.5301 40.7698 35.745 40.584 35.8281 40.5645C35.9112 40.5469 36.0971 40.5256 36.2488 40.5539C36.4005 40.584 36.4547 40.6972 36.5757 40.8104C36.6967 40.9237 36.7508 41.0864 36.7689 41.1519C36.787 41.2173 36.7888 41.235 36.8574 41.3146C36.9031 41.3689 36.9495 41.4284 36.9964 41.4933C37.0669 41.5906 36.9368 41.8082 37.0073 41.9869C37.0795 42.1673 36.9838 42.1531 37.0344 42.2823C37.0849 42.4132 37.1174 42.346 37.047 42.6131C37.0013 42.79 36.9507 42.9121 36.8953 42.9793C36.814 43.0801 36.8285 42.9793 36.814 43.0801C36.7996 43.1792 37.1228 43.303 37.1897 43.3012C37.2565 43.3012 37.4425 43.2959 37.4425 43.2959C37.4425 43.2959 37.5093 43.2606 37.6971 43.4056C37.8849 43.5507 37.9372 43.5984 38.0889 43.6268C38.2406 43.6568 38.4266 43.6692 38.6686 43.9434C38.9106 44.2176 39.1562 43.9487 39.3584 43.9275C39.5607 43.9063 39.6925 43.7877 39.8406 43.701C39.9904 43.6161 40.0717 43.4976 40.2089 43.6427C40.348 43.7877 40.5015 43.9257 40.5556 44.0266C40.5906 44.0938 40.6315 44.1657 40.6784 44.2424C40.7489 44.3556 40.5394 44.0142 40.8789 44.881C41.2184 45.7461 41.1823 45.5815 41.1046 45.8646C41.027 46.1459 41.1335 46.3422 41.2906 46.5687C41.4477 46.7951 41.677 46.5757 41.8504 46.7703C42.0238 46.9632 41.9551 46.8835 42.1466 47.209C42.3398 47.5345 42.3921 47.6478 42.412 47.7132C42.4301 47.7787 42.3777 47.6973 42.4174 47.9609C42.4571 48.2245 42.3145 48.2439 42.4337 48.5217C42.5547 48.7994 42.5366 48.7658 42.5619 49.063C42.5854 49.3584 42.6431 49.6539 42.6793 49.7352C42.7154 49.8166 42.663 49.7848 42.784 49.9139C42.905 50.043 42.9032 49.9935 43.1108 50.1704L43.3167 50.3473C43.3167 50.3473 43.286 50.4464 43.3239 50.6604C43.3637 50.8745 43.3944 50.7737 43.333 51.0549C43.2716 51.3362 43.1759 51.5202 43.1759 51.5202C42.9899 51.476 42.9682 51.2778 42.7659 51.2831C42.5637 51.2884 42.0978 51.5131 41.9479 51.5503C41.798 51.5874 41.7836 51.736 41.7565 52.0155C41.7294 52.2968 41.8504 52.4259 41.9371 52.5055C42.0238 52.5869 42.0581 52.6506 42.0274 52.7833C41.9967 52.916 42.0635 52.8823 41.9154 53.0663C41.7691 53.2503 41.7384 53.383 41.6716 53.4502C41.6066 53.5174 41.5091 53.6855 41.426 53.7527C41.343 53.8199 41.2762 53.7899 41.213 53.9721C41.1498 54.1543 41.2653 54.0375 41.1498 54.1543C41.0342 54.2728 40.9529 54.34 40.9529 54.34C40.9529 54.34 40.9367 54.3736 40.906 54.4886C40.8753 54.6054 40.8608 54.6868 40.8969 54.8017C40.9331 54.9167 40.9313 54.8177 40.9367 55.0653C40.9421 55.313 40.9096 55.3289 40.962 55.428C41.0143 55.5253 40.9999 55.6084 41.1245 55.8685C41.2491 56.1303 41.2509 56.1957 41.4026 56.2081C41.5543 56.2205 41.8053 56.1993 41.9407 56.1957C42.0743 56.1922 42.1429 56.1727 42.3434 56.1957C42.5456 56.217 42.8978 56.1745 42.9808 56.0737C43.0621 55.9728 43.0278 55.9569 43.1433 55.8384C43.2589 55.7199 43.2914 55.6703 43.2878 55.5872C43.2878 55.5058 43.2625 55.2582 43.2788 55.2086C43.295 55.1591 43.1921 55.0954 43.3384 54.9256C43.4865 54.7575 43.5009 54.708 43.5822 54.6072C43.6634 54.5063 43.7266 54.34 43.8584 54.2215C43.9903 54.103 43.9216 54.0393 44.1203 53.9013C44.3189 53.7651 44.2846 53.7492 44.4832 53.6289C44.6819 53.5086 44.7993 53.5227 44.9148 53.3724C45.0286 53.222 45.0792 53.2361 45.0755 53.0557C45.0701 52.8753 45.0665 52.6931 45.0647 52.6276C45.0629 52.5621 45.1749 52.295 45.0485 51.9518C44.9221 51.6086 44.8462 51.2654 44.8462 51.2654C44.8462 51.2654 44.8227 50.9682 45.1713 50.763C45.5198 50.5578 46.0778 50.0165 46.28 50.0112C46.4823 50.0059 46.7658 49.9511 46.9373 50.0289C47.1071 50.1067 47.0276 50.2571 47.3743 50.0183C47.7228 49.7795 47.7878 49.7122 47.7842 49.6132C47.7824 49.5141 47.7662 49.5636 47.573 49.2063C47.3797 48.8489 47.349 48.9816 47.2714 48.5376C47.1937 48.0936 47.1594 48.1113 47.1558 47.9308C47.1504 47.7504 47.2678 47.7132 47.1414 47.3205C47.0132 46.9278 46.4859 46.6589 46.3143 46.5492C46.1428 46.4377 45.9062 46.3599 45.648 46.1193C45.3898 45.8787 45.388 45.7956 45.2038 45.8168C45.0196 45.838 44.7668 45.877 44.7162 45.8451C44.6638 45.8133 44.3587 45.6877 44.355 45.5232C44.3514 45.3586 44.2286 45.1464 44.2557 44.8987C44.2828 44.651 44.3279 44.4193 44.3912 44.2689C44.4544 44.1185 44.6963 43.6851 44.6927 43.5029C44.6891 43.3225 44.8047 42.5441 44.8336 42.3955C44.8643 42.2469 44.8444 42.0983 45.1532 41.679C45.462 41.2598 45.3753 41.1466 45.7076 40.9732C46.0398 40.7998 46.2674 40.4991 46.522 40.5752C46.7766 40.6512 46.9283 40.7149 47.0023 40.9272C47.0746 41.1395 46.9752 41.2085 47.1973 41.3182C47.4195 41.4278 46.773 41.1643 47.5892 41.4915C48.4054 41.8188 48.4054 41.8011 48.5228 41.8329C48.642 41.863 48.7594 41.8613 49.0447 41.8542C49.33 41.8471 49.2126 41.8506 49.5322 41.8259C49.8519 41.8011 49.8501 41.7357 49.9367 41.8329C50.0234 41.9302 50.0938 42.0771 50.13 42.1744C50.1661 42.2717 50.1137 42.208 50.2184 42.3867C50.3232 42.5653 50.3358 42.3672 50.6139 42.7564C50.892 43.1456 50.5652 42.8236 50.6284 43.3667C50.6916 43.908 50.6916 43.8585 50.9805 44.0018C51.2694 44.1433 51.2947 44.4387 51.6161 44.5148C51.9376 44.5891 51.9538 44.5732 52.1055 44.5856C52.2572 44.5979 52.4269 44.628 52.4757 44.5926C52.5262 44.5573 52.5768 44.6068 52.5696 44.2937C52.5624 43.9806 52.5425 43.8833 52.5569 43.7665C52.5714 43.6515 52.519 43.6197 52.631 43.3862C52.7429 43.1526 52.7917 43.0854 52.8856 42.7865C52.9795 42.4875 53.0391 42.2062 52.9524 42.093C52.8657 41.9798 52.8134 41.9143 52.3132 41.3995C51.813 40.883 51.2622 40.4301 51.0888 40.1895C50.9155 39.9489 51.2712 40.1064 50.6735 39.6747C50.074 39.2431 49.971 39.1299 49.8519 39.0998C49.7327 39.0697 49.2433 38.9653 48.8334 38.7442C48.4253 38.5231 48.2212 38.4612 47.898 38.3373C47.5748 38.2135 47.3057 38.1534 47.0998 38.0437C46.8958 37.9322 46.7947 37.9517 46.5888 37.7589C46.3811 37.566 46.2457 37.4864 46.1951 37.4546C46.1446 37.4227 46.0055 37.2936 45.8195 37.2653C45.6335 37.237 45.3284 37.145 45.0232 37.0689C44.718 36.9929 44.5826 36.915 44.3948 36.8354C44.207 36.7576 43.546 36.5754 43.4269 36.4958C43.3077 36.4162 42.6612 36.1667 42.5077 36.0889C42.3542 36.0093 41.7583 35.7439 41.6572 35.7457C41.5561 35.7475 41.5922 35.8465 41.4387 35.751C41.2852 35.6555 41.166 35.6254 41.0089 35.399C40.8518 35.1725 40.6622 34.962 40.6622 34.962C40.6622 34.962 40.5412 34.817 40.6893 34.6489C40.8355 34.4808 41.1317 34.1606 41.3303 34.074C41.5308 33.9873 41.7276 33.8334 41.8396 33.6158C41.9533 33.4 42.0508 33.2655 41.845 33.1381C41.6409 33.0108 41.5506 32.7649 41.1299 32.7596C40.7091 32.7525 40.5845 32.5084 40.4076 32.7773C40.2288 33.0444 40.2523 33.3575 39.9507 33.3805C39.6491 33.4035 39.8279 33.1523 39.3711 33.0975C38.916 33.0426 38.2244 32.9435 38.0745 33.0125C37.9246 33.0815 37.6086 33.2213 37.558 33.239C37.5075 33.2567 36.805 32.6959 36.5829 32.5526C36.3608 32.4093 35.7793 32.0272 35.541 31.9175C35.3026 31.8078 35.0949 31.5973 35.0949 31.5973C35.0949 31.5973 34.5676 31.362 34.2751 31.1055C33.9826 30.849 33.6936 30.6898 33.6413 30.6597C33.5889 30.6279 32.9334 29.9185 32.7582 29.6744C32.5849 29.432 32.5289 29.218 32.4603 29.1366C32.3917 29.0552 32.3086 29.1242 32.0775 28.5846C31.8463 28.0469 31.6712 27.7709 31.6513 27.6718C31.6314 27.5728 31.7 27.6046 31.6477 27.5073C31.5953 27.41 31.5285 27.4613 31.4689 27.1004C31.4093 26.7395 31.3551 26.5432 31.3172 26.4282C31.2811 26.3132 31.0211 25.3473 30.9181 25.25C30.8152 25.1545 30.7105 25.0236 30.7069 24.8927C30.7032 24.7618 30.5136 24.5512 30.4902 24.2717C30.4667 23.9922 30.4974 23.8914 30.2735 23.6667C30.0496 23.4421 29.7751 23.2174 29.7751 23.2174C29.7751 23.2174 29.2333 23.0493 29.1322 23.0352C29.0311 23.021 28.316 22.6584 28.1444 22.5133C27.9729 22.37 27.9025 22.2727 27.9025 22.2727C27.9025 22.2727 27.4546 21.8375 27.0429 21.5173C26.6312 21.1971 26.2213 20.9601 26.0497 20.815C25.8782 20.6717 25.8276 20.7213 25.5856 20.4135C25.3419 20.1057 25.0728 19.8651 25.0367 19.4865C25.0006 19.1079 25.0981 17.7652 25.127 17.5671C25.1559 17.369 25.1414 17.1213 25.1071 16.9568C25.0746 16.7922 24.9933 16.2668 24.8922 16.2686C24.7911 16.2704 24.5906 16.3411 24.5419 16.3924C24.4931 16.442 24.3631 16.6436 24.3469 16.6932C24.3324 16.7427 24.1843 16.9603 24.1843 16.9603C24.1843 16.9603 24.1374 17.0771 24.0001 17.0311C23.8647 16.9851 23.6607 16.9408 23.6245 16.7763C23.5866 16.6136 23.4331 16.5004 23.5288 16.3005C23.6245 16.1006 23.5559 16.0192 23.7708 15.883C23.9857 15.745 23.9189 15.7308 24.1374 15.7255C24.3559 15.7202 24.6773 15.7467 24.9265 15.6088C25.1757 15.4708 25.508 15.331 25.6416 15.2302C25.7734 15.1276 25.8908 15.1258 25.936 14.8782C25.9811 14.6305 25.9901 14.3333 25.9558 14.2838C25.9215 14.236 25.5098 13.9317 25.3888 13.753C25.266 13.5744 25.1884 13.378 25.1884 13.378C25.1884 13.378 24.9049 13.2524 24.9012 13.1374C24.8994 13.0224 24.9355 12.4776 25.0168 12.3608C25.0981 12.2441 25.2985 12.1574 25.378 12.0229C25.378 12.0229 25.6416 11.1225 25.694 11.1225C25.7463 11.1225 26.1201 11.0871 26.2267 11.1225C26.3332 11.1579 26.5283 11.4179 26.5283 11.4179C26.5283 11.4179 27.4889 11.3348 27.684 11.1066C27.879 10.8784 28.3232 10.6873 28.4839 10.6696C28.6428 10.6519 29.627 9.69842 30.1019 9.73026C30.5768 9.76387 31.05 9.73026 31.05 9.73026C31.05 9.73026 31.3335 9.43837 31.3335 9.16063C31.3335 8.88289 31.1908 8.60338 31.1908 8.37164V7.62864H30.9055C30.9055 7.62864 30.7628 7.25715 30.7159 7.11739C30.6689 6.97764 30.5263 6.79189 30.5263 6.79189C30.5263 6.79189 30.3367 6.46639 30.5263 6.28064C30.7159 6.09489 30.9994 6.04889 31.1908 5.76939C31.3804 5.48988 31.6639 5.30413 31.6639 5.16615C31.6639 5.02816 31.617 4.79465 31.3804 4.79465C31.1439 4.79465 29.6739 4.56291 28.7259 4.46915C27.7779 4.37716 27.0664 3.77215 26.6402 3.77215C26.2141 3.77215 26.3549 4.09765 25.6922 3.5864C25.0294 3.07515 24.7911 3.02915 24.7441 2.74964C24.6972 2.47014 24.6015 2.5639 24.6015 2.1924C24.6015 1.8209 24.5545 1.77491 24.7441 1.30965C24.9337 0.844393 25.0294 0.658644 24.5545 0.798398C24.0814 0.938151 24.3649 0.844393 23.6534 1.26365C22.942 1.68115 22.8011 1.8209 22.4688 1.8209H21.6147C21.3781 1.8209 21.0928 1.77491 20.8093 1.91289C20.524 2.05264 19.8613 2.14463 19.529 2.60989L19.1967 3.07515C19.1967 3.07515 18.6279 3.12114 18.3914 2.93539C18.1548 2.74964 18.3444 2.47014 17.9652 2.5179C17.586 2.56566 17.2537 2.74964 17.2537 2.74964C17.2537 2.74964 17.1111 2.65589 16.8745 3.02915C16.6379 3.40065 16.4483 3.72615 16.4483 3.72615C16.4483 3.72615 16.7336 4.00389 16.8275 4.14364C16.9233 4.2834 17.0172 4.32939 16.8275 4.56114C16.6379 4.79288 16.4014 4.93263 16.163 4.79288C15.9265 4.65313 15.7368 4.42138 15.7368 4.42138C15.7368 4.42138 15.4533 4.42138 15.3576 4.56114C15.2619 4.70089 15.2619 4.6549 15.215 4.93263C15.168 5.21214 15.2619 6.27887 15.2619 6.27887C15.2619 6.27887 15.3576 6.69636 14.9784 6.65037C14.7256 6.6197 14.5041 6.55779 14.3139 6.46462C14.0286 6.32486 13.7451 6.18511 13.6024 6.18511C13.4597 6.18511 13.1762 6.41685 12.9397 6.18511C12.7031 5.95337 12.1343 5.53411 12.1343 5.39612C12.1343 5.25814 11.802 4.74688 11.6124 4.93263C11.4228 5.11838 11.2802 6.04713 11.2802 6.27887C11.2802 6.51061 11.3759 6.46462 11.1844 6.69636C10.9948 6.92811 10.8052 7.11385 10.8052 7.11385L10.6156 7.6711C10.6156 7.6711 10.473 7.76309 10.473 8.0426C10.473 8.32211 11.0905 9.15709 10.7095 9.20309C10.3303 9.24908 9.47616 8.92358 9.47616 8.59984C9.47616 8.27611 9.85538 7.62511 9.42921 7.57911C9.00305 7.53312 9.05 7.95061 8.52812 7.43936C8.00625 6.92811 7.53313 6.69636 7.53313 6.32486C7.53313 5.95337 7.8654 5.67386 7.43742 5.62786C7.01126 5.58187 6.72594 5.58187 6.58328 5.95337C6.44063 6.32486 6.39368 6.23111 6.34673 6.65037C6.29978 7.06786 6.34673 7.16162 6.25283 7.30137C6.15712 7.44113 6.44243 7.16162 6.15712 7.44113C5.8718 7.72063 5.82485 7.72063 5.68219 7.99837C5.53954 8.27788 4.06962 8.32387 3.92877 8.32387C3.78792 8.32387 3.61998 8.78736 3.17034 8.81213C2.71889 8.83513 2.34148 8.81213 1.74737 8.81213C1.15327 8.81213 0.988941 8.50962 0.703626 8.78913C0.418311 9.06864 0.32441 9.13763 0.181752 9.27738C0.0390944 9.41714 -0.127038 9.34815 0.086045 9.60289C0.299128 9.85763 0.086045 9.71964 0.418311 9.99738C0.750576 10.2769 0.797527 10.2521 0.916709 10.4856C1.03409 10.7174 1.17674 10.8341 1.3194 10.9739C1.46206 11.1136 1.9117 11.6001 1.9117 11.6001C1.9117 11.6001 2.22049 11.6939 2.05436 12.1344C1.88823 12.5749 1.88823 12.6916 1.88823 12.6916C1.88823 12.6916 2.07783 12.5996 1.72209 12.8314C1.36635 13.0631 1.2255 13.1569 0.940185 13.3656C0.656675 13.5744 0.443592 13.5054 0.32441 13.7601C0.207033 14.0149 0.0409002 14.5969 0.111326 14.7349C0.181752 14.8746 0.420117 15.3859 0.490542 15.4319C0.560968 15.4779 0.537493 15.5486 0.799333 15.5486C1.06117 15.5486 1.03589 15.4089 1.24898 15.5026C1.46206 15.5964 1.55777 16.0139 1.48553 16.1766C1.48553 16.1766 0.158277 17.1514 0.181752 17.2221C0.205227 17.2911 0.37136 17.5016 0.750576 17.7104C1.12979 17.9191 1.2255 18.1509 1.2255 18.1509C1.2255 18.1509 1.20202 18.2676 1.24898 18.4304C1.29593 18.5931 1.27245 18.5701 1.46206 18.7099C1.46206 18.7099 1.12979 19.0354 1.55777 19.1504C1.98393 19.2671 2.15007 19.4299 2.36315 19.4529C2.57623 19.4759 3.47732 19.5696 3.73916 19.5696C4.001 19.5696 4.02267 19.5236 4.0949 19.5236C4.16713 19.5236 4.71068 19.6404 4.54455 19.9871C4.37841 20.3356 4.26104 20.5904 4.14185 20.7531C4.02448 20.9159 3.90529 21.2644 3.90529 21.2644C3.90529 21.2644 3.76264 21.4271 3.85834 21.4731C3.95405 21.5191 4.21409 21.7049 4.56983 21.7049C4.92557 21.7049 5.42397 21.9366 5.77971 21.6589C6.13545 21.3811 6.1824 21.3811 6.41896 21.1016C6.65552 20.8221 6.58509 20.8699 6.84512 20.6134C7.10516 20.3586 7.75344 19.4299 8.10196 19.306L8.11279 19.2954Z" fill="#7B4E4E"/>
<path d="M38.5586 54.7575C38.5586 54.7575 38.0042 55.0264 37.504 55.0936C37.002 55.1608 36.8287 55.0741 36.3303 55.1732C35.8319 55.274 35.5195 55.1431 35.4237 55.2404C35.3298 55.3395 35.2052 55.4793 34.8062 55.573C34.4089 55.665 33.8563 55.5058 33.6992 55.6473C33.5403 55.7906 32.8523 55.5996 32.6266 55.734C32.399 55.8684 31.9855 55.7145 31.8898 55.8118C31.7959 55.9091 31.6117 56.1639 31.2199 55.872C30.828 55.5783 30.7449 55.3537 30.3043 55.3165C29.8637 55.2794 29.4863 55.2068 29.2515 55.2227C29.0168 55.2387 28.5058 55.1732 28.1771 55.2953C27.8484 55.4156 27.3338 55.2953 26.8986 55.3377C26.4634 55.3784 26.0336 55.0105 25.9054 56.0772C25.779 57.1439 25.8856 57.1705 25.7989 57.4075C25.7122 57.6446 26.3713 58.8546 26.3713 58.8546C26.3713 58.8546 26.4002 58.7856 26.7397 58.8298C27.0792 58.874 28.206 59.0616 28.206 59.0616C28.206 59.0616 29.1685 59.7886 29.6922 60.0504C30.2158 60.3123 30.6023 60.5175 30.7034 60.5104C30.8027 60.5033 31.1205 60.6802 31.1205 60.6802C31.1205 60.6802 31.3788 60.9933 31.5196 61.0818C31.6605 61.172 32.5905 61.4391 32.6952 61.4975C32.7999 61.5559 33.757 61.7222 33.757 61.7222C33.757 61.7222 33.6378 61.4674 33.8906 61.7133C34.1452 61.961 34.9777 62.3007 34.9777 62.3007L35.1944 62.5165C35.1944 62.5165 35.115 62.819 35.4599 62.9287C35.8048 63.0366 35.7849 63.2365 36.6246 63.1799C37.4643 63.1233 38.2697 63.0684 38.2697 63.0684C38.8331 62.4351 39.0841 62.1874 39.0841 62.1874C39.0841 62.1874 39.2954 62.3042 39.0407 61.563C38.7861 60.82 38.2841 59.9284 38.2841 59.9284L38.573 58.7661C38.573 58.7661 38.6218 58.8174 38.9107 58.4335C39.1979 58.0497 39.3911 57.9046 39.5301 57.4995C39.671 57.0926 39.6276 57.4606 39.671 57.0926C39.7125 56.7264 39.55 56.8043 39.6222 56.4027C39.6944 56.0011 39.3893 55.9887 39.5825 55.6119C39.7757 55.2351 39.7956 55.0352 39.7793 54.8053C39.7631 54.5753 39.7595 54.524 39.7504 54.4019C39.7414 54.2781 40.052 53.8942 39.4958 54.1295C38.9396 54.3665 39.3387 54.4744 38.5622 54.7557L38.5586 54.7575Z" fill="#7B4E4E"/>
<path d="M9.88378 50.3684C9.88378 50.3684 9.84947 49.3459 9.88378 49.2804C9.91809 49.215 9.9849 49.0823 10.1872 49.0823C10.3894 49.0823 10.4905 49.3459 10.691 49.3795C10.8932 49.4131 11.0955 49.4131 11.2634 49.4785C11.4313 49.544 11.6336 49.9066 11.8358 49.9721C12.0381 50.0376 12.3072 50.4338 12.5762 49.9721C12.8453 49.5104 12.8453 49.4113 12.8453 49.0823C12.8453 48.7532 12.6773 48.456 12.8453 48.1606C13.0132 47.8634 13.1143 47.568 13.1487 47.4689C13.183 47.3699 13.1487 47.0072 13.1487 47.0072C13.1487 47.0072 12.9771 46.7772 13.1631 46.4146C13.3491 46.0519 13.4845 45.1957 13.4845 45.1957C13.4845 45.1957 13.6525 45.1303 13.4845 44.8331C13.3166 44.5359 13.2155 44.2723 13.1812 44.1414C13.1468 44.0087 13.1468 43.8778 13.1468 43.6478C13.1468 43.4178 13.1125 42.9225 13.248 42.758C13.3834 42.5935 13.517 42.3617 13.7536 41.9991C13.9883 41.6364 13.9215 41.5055 13.7536 41.1747C13.5857 40.8456 13.5188 40.713 13.3834 40.3185C13.248 39.924 13.0132 39.5277 12.8796 39.2305C12.746 38.9333 12.746 39.0005 12.5437 38.5052C12.3415 38.0117 12.2746 37.7799 12.2746 37.7799C12.2746 37.7799 12.0074 37.8135 11.89 37.7799C11.7708 37.7463 11.5361 37.6154 11.3338 37.7799C11.1316 37.9444 11.0323 38.0099 10.83 38.1089C10.6278 38.208 10.3587 38.3725 10.3587 38.3725L9.55151 38.6025C9.55151 38.6025 9.4847 38.7016 9.31676 38.8661C9.14882 39.0306 8.87976 39.4269 8.87976 39.4269L8.44276 39.625C8.44276 39.625 8.37594 39.6586 8.27482 39.625C8.1737 39.5914 7.36651 39.4605 7.36651 39.3614C7.36651 39.2624 7.19857 39.1633 7.13175 38.9652C7.06494 38.767 6.96381 38.5689 6.86269 38.7016C6.76157 38.8325 6.66044 39.0642 6.66044 39.1633C6.66044 39.2624 6.76157 39.5259 6.66044 39.625C6.55932 39.7241 6.89519 39.7895 6.66044 40.0867C6.42569 40.3839 6.35707 40.5485 6.42569 40.7466C6.4925 40.9447 6.52681 41.1092 6.69475 41.1411C6.86269 41.1747 7.13175 41.4047 7.23288 41.5037C7.334 41.6028 7.66988 42.13 7.66988 42.13C7.66988 42.13 7.73669 42.8217 7.73669 42.9543V43.7787C7.73669 43.8778 7.73669 43.6973 7.70419 44.0352C7.66988 44.3731 7.56876 44.6031 7.66988 44.8012C7.771 44.9993 7.80531 45.0984 7.93894 45.4275C8.07438 45.7565 8.17369 45.4275 8.07438 45.7565C7.97325 46.0855 7.83962 46.2501 7.83962 46.2501C7.83962 46.2501 7.80531 46.2837 7.7385 46.6463C7.67168 47.009 7.67169 47.1735 7.63737 47.2726C7.60307 47.3716 7.50375 47.4707 7.46944 47.6016C7.43513 47.7325 7.43513 47.7007 7.36831 47.9642C7.3015 48.2278 7.23468 48.7886 7.23468 48.7886C7.23468 48.7886 7.40262 48.7886 7.23468 48.9531C7.06674 49.1177 7.26899 49.2503 6.96562 49.2822C6.66225 49.3158 6.52862 48.8877 6.66225 49.3158C6.79588 49.7439 7.03243 50.0411 7.06674 50.1402C7.10105 50.2392 7.13356 50.2056 7.23468 50.3701C7.33581 50.5347 8.31094 50.6673 8.6125 50.7664C8.91588 50.8655 9.90545 51.1291 9.891 50.3701L9.88378 50.3684Z" fill="#7B4E4E"/>
</g>
<defs>
<clipPath id="clip0_586_2352">
<rect width="53" height="62.4417" fill="white" transform="translate(0 0.748779)"/>
</clipPath>
</defs>
</svg>
