<svg width="11" height="12" viewBox="0 0 11 12" fill="none" xmlns="http://www.w3.org/2000/svg">
<path d="M10.9367 6.72342C10.9135 6.6209 10.8315 6.57313 10.7648 6.50147C10.7201 6.4537 10.7369 6.41291 10.7039 6.36111C10.6638 6.29804 10.594 6.26584 10.5491 6.2076C10.4567 6.08817 10.4084 5.94754 10.3471 5.82301C10.33 5.78866 10.2237 5.79725 10.1897 5.77444C9.98878 5.63971 9.7424 5.55329 9.50187 5.51948C9.27614 5.48781 9.15978 5.77605 8.92958 5.67648C8.72421 5.58738 8.7577 5.44916 8.67175 5.29726C8.65724 5.2715 8.6165 5.28062 8.5953 5.26022C8.46471 5.13409 8.22279 5.07987 8.12457 4.93039C7.98282 4.71461 7.96859 4.48864 8.10169 4.26776C8.14075 4.20308 8.13741 4.08902 8.19265 4.02998C8.35505 3.85634 8.50824 3.74738 8.50908 3.48114C8.50991 3.18647 8.17396 3.29731 8.03612 3.16419C7.95073 3.08153 7.96441 2.90896 7.91251 2.80403C7.86535 2.70821 7.74676 2.76001 7.69598 2.69453C7.63068 2.61026 7.89521 2.40361 7.96385 2.37623C8.09555 2.32336 8.21888 2.36603 8.34975 2.27237C8.45522 2.19669 8.63018 1.98789 8.68487 1.87114C8.74374 1.74527 8.74374 1.62182 8.87405 1.52842C9.00575 1.43422 9.21363 1.49031 9.33892 1.35639C9.57805 1.10117 9.80127 0.836008 9.8808 0.496241C9.88722 0.468598 9.88638 0.443102 9.88247 0.418411C9.64864 0.456521 9.55879 0.527373 9.30683 0.336019C9.02836 0.124537 8.94855 0.048854 8.6977 0.0544899C8.69687 0.068714 8.69491 0.0813278 8.68905 0.0883056C8.59586 0.202635 8.40444 0.24316 8.32268 0.377349C8.20326 0.572997 8.40611 0.773744 8.08188 0.821784C7.69933 0.878411 7.77466 0.553674 7.66947 0.350511C7.66221 0.336556 7.54279 0.337897 7.52577 0.333067C7.43118 0.30596 7.3483 0.244233 7.26766 0.213907C7.16331 0.174723 7.05169 0.232693 6.96687 0.282612C6.65296 0.467256 6.61361 0.807828 6.39122 1.055C6.32481 1.12854 6.12782 1.03085 6.06336 1.19054C6.00337 1.33922 5.97184 1.49837 5.91241 1.64597C5.86385 1.76621 5.5385 1.74339 5.47879 1.89154C5.43582 1.99809 5.54715 2.28069 5.66016 2.31719C5.72797 2.33893 5.82758 2.35852 5.86441 2.42964C5.90069 2.49995 5.73996 2.67574 5.78098 2.78792C5.80582 2.85582 5.96207 2.84133 6.02346 2.88749C6.19786 3.01927 5.91213 3.43149 5.80944 3.54582C5.68583 3.68323 5.37918 3.64942 5.21873 3.73745C5.14702 3.77663 5.04238 3.83728 4.99634 3.90357C4.945 3.97711 5.01364 4.10298 4.96007 4.18C4.91989 4.2377 4.73015 4.33405 4.66123 4.37189C4.60402 4.40329 4.53957 4.3633 4.4793 4.36733C4.40005 4.3727 4.20194 4.43657 4.13134 4.3778C4.08112 4.33593 4.17152 4.32895 4.08865 4.28494C4.06968 4.27474 3.84896 4.26347 3.81715 4.26964C3.52473 4.32546 3.48399 4.64054 3.25965 4.76346C3.14943 4.82384 2.9156 4.79915 2.82185 4.90328C2.72 5.01627 2.95969 5.22668 2.90891 5.35255C2.84054 5.52189 2.63852 5.50579 2.57183 5.69768C2.51714 5.85468 2.64187 5.87937 2.67703 6.00873C2.70186 6.10079 2.57072 6.25054 2.51045 6.30448C2.45687 6.35279 2.36982 6.4427 2.29922 6.38419C2.225 6.32247 2.2995 6.17378 2.22556 6.11206C2.21077 6.09998 2.11562 6.09864 2.09971 6.09676C2.05535 6.09139 1.94485 6.05838 1.90216 6.07287C1.80338 6.10615 1.77185 6.24947 1.65717 6.27121C1.51933 6.29751 1.38483 6.14721 1.23974 6.25564C1.14905 6.32327 1.17835 6.47276 1.09352 6.53609C1.01456 6.59514 0.926662 6.60534 0.871134 6.70195C0.703157 6.99341 0.748639 7.30124 0.643165 7.60424C0.570896 7.81223 0.288515 7.74138 0.151232 7.87772C0.123049 7.90563 0.0979365 7.93837 0.0742188 7.97272C0.185832 8.06558 0.30721 8.30229 0.373062 8.4134C0.440309 8.52693 0.63033 8.5916 0.718504 8.7011C0.879226 8.90024 1.0952 9.17747 1.31256 9.3173C1.43924 9.39862 1.64824 9.3224 1.77715 9.39137C2.00652 9.51375 2.00958 9.88599 2.24788 9.97483C2.38516 10.0261 2.51714 9.95872 2.65192 9.95362C2.8411 9.94638 3.16031 10.1219 3.26914 10.2566C3.38856 10.4045 3.36847 10.5561 3.38968 10.7276C3.38968 10.7282 3.38968 10.7287 3.38968 10.729C3.80767 10.6694 4.05573 11.1866 4.46674 11.1391C4.55408 11.1289 4.71787 10.9359 4.79265 10.8803C4.87971 10.8154 5.14116 10.6098 5.24859 10.6023C5.31639 10.5977 5.38141 10.6168 5.44838 10.609C5.50837 10.602 5.54687 10.5441 5.60324 10.54C5.85716 10.5226 5.76257 10.7263 5.93529 10.791C6.08373 10.8465 6.23748 10.5934 6.42248 10.6922C6.50451 10.7359 6.52432 10.8597 6.59296 10.9235C6.68923 11.0132 6.83935 10.959 6.94092 11.0534C6.99868 11.1074 6.99086 11.2072 7.04388 11.2413C7.16359 11.3183 7.39797 11.2534 7.52437 11.3347C7.70826 11.4531 7.77941 11.6106 7.86507 11.7971C7.88181 11.8339 7.93567 11.8779 7.99957 11.9206C8.14271 11.6439 8.29283 11.5931 8.4622 11.3897C8.66031 11.1517 8.84643 10.9391 8.5381 10.7751C8.23005 10.6114 7.97557 10.6799 7.83633 10.2577C7.69709 9.83554 7.8221 9.88411 7.65329 9.61654C7.48447 9.34897 7.1248 9.68149 7.25957 9.26282C7.39434 8.84415 7.51851 8.98317 7.67728 8.7113C7.83605 8.43943 7.82154 8.49391 7.83187 8.079C7.84219 7.66409 7.50512 7.4671 7.95659 7.36109C8.40807 7.25535 8.78755 6.99502 8.58581 7.24354C8.38435 7.49206 8.33329 7.37183 8.2839 7.64235C8.23423 7.91288 8.32296 7.92952 8.68375 7.74729C9.04482 7.56506 8.94883 7.64718 9.55042 7.36082C10.152 7.07446 9.99632 7.03045 10.3457 7.01515C10.6922 6.99985 10.6763 7.08037 10.9194 6.94752C10.9403 6.87237 10.954 6.79669 10.9375 6.72369L10.9367 6.72342Z" fill="#7B4E4E"/>
</svg>
