<svg width="397" height="486" viewBox="0 0 397 486" fill="none" xmlns="http://www.w3.org/2000/svg">
<g clip-path="url(#clip0_387_6225)">
<path d="M131.307 286.627C131.918 291.522 131.536 298.567 130.006 309.118C56.6063 306.573 14.2803 259.998 3.35074 203.598C-7.60719 147.052 13.0022 80.6389 65.5735 38.8494C127.336 -10.244 205.104 -8.67501 269.698 23.5984C334.3 55.8757 385.645 118.83 394.538 192.38C409.147 313.283 341.348 424.246 230.237 469.878C228.927 470.416 227.493 471.016 225.957 471.658C217.745 475.094 206.622 479.748 195.827 482.697C189.422 484.447 183.164 485.587 177.723 485.524C172.366 485.461 167.87 484.233 164.785 481.349V343.94C220.446 335.713 260.158 290.061 272.585 239.483C285.048 188.761 270.097 132.954 216.169 104.854C157.329 74.1903 104.699 95.7526 78.7587 134.073C52.8252 172.384 53.5756 227.455 101.419 263.67C107.12 267.988 112.18 270.345 116.447 272.126C117.204 272.442 117.932 272.739 118.632 273.024C121.908 274.358 124.565 275.44 126.626 277.062C129.073 278.987 130.691 281.694 131.307 286.627Z" stroke="#BEBEBE"/>
<path d="M164.551 246.847L164.549 246.37L164.073 246.349C137.616 245.194 120.082 235.057 110.163 221.189C100.236 207.309 97.8869 189.626 101.932 173.295C105.978 156.966 116.408 142.027 131.987 133.635C147.556 125.248 168.323 123.37 193.109 133.261C196.058 134.443 201.78 137.923 207.326 141.711C212.874 145.5 218.151 149.532 220.234 151.791C243.362 176.942 245.678 212.798 234.016 243.539C222.419 274.104 197.051 299.486 164.783 304.181L164.551 246.847Z" stroke="#BEBEBE"/>
</g>
<defs>
<clipPath id="clip0_387_6225">
<rect width="397" height="486" fill="white"/>
</clipPath>
</defs>
</svg>
